<?xml version="1.0" standalone="no"?>
<!DOCTYPE svg PUBLIC "-//W3C//DTD SVG 20010904//EN"
 "http://www.w3.org/TR/2001/REC-SVG-20010904/DTD/svg10.dtd">
<svg version="1.0" xmlns="http://www.w3.org/2000/svg"
 width="256.000000pt" height="256.000000pt" viewBox="0 0 256.000000 256.000000"
 preserveAspectRatio="xMidYMid meet">

<g transform="translate(0.000000,256.000000) scale(0.100000,-0.100000)"
fill="#000000" stroke="none">
<path d="M827 1814 c-3 -3 12 -29 34 -56 21 -27 39 -55 39 -61 0 -12 -137
-640 -146 -670 -5 -16 2 -17 98 -15 l103 3 35 160 35 160 43 3 c35 3 61 16
143 77 55 40 95 76 89 80 -5 3 -60 5 -120 4 -61 -1 -113 0 -115 2 -2 2 4 38
14 79 l17 75 42 3 c42 3 43 3 36 -25 -4 -15 -7 -32 -8 -38 0 -5 27 -11 61 -13
58 -3 64 -1 73 20 15 34 49 201 44 210 -6 9 -508 11 -517 2z"/>
<path d="M1385 1798 c-7 -21 -52 -228 -50 -228 2 0 51 23 110 50 99 46 157 61
168 43 3 -5 -85 -150 -194 -323 l-198 -315 207 -5 c195 -5 207 -4 210 13 2 11
9 16 18 13 42 -17 48 -18 27 -2 -13 10 -23 28 -23 42 0 22 3 24 23 18 12 -3
34 -12 48 -20 l26 -13 22 99 c12 55 27 102 32 106 12 7 31 55 25 61 -9 9 -65
-62 -66 -83 0 -26 -19 -43 -91 -83 -54 -30 -57 -31 -87 -15 -39 19 -56 47 -43
72 5 9 88 142 185 295 97 154 176 281 176 283 0 2 -117 4 -260 4 -200 0 -262
-3 -265 -12z m155 -623 c0 -8 -7 -15 -15 -15 -16 0 -20 12 -8 23 11 12 23 8
23 -8z"/>
<path d="M1783 1353 c-33 -36 -41 -53 -25 -53 13 0 49 43 57 68 8 29 6 28 -32
-15z"/>
<path d="M773 924 c-19 -8 -17 -84 2 -84 8 0 15 7 15 15 0 8 7 15 15 15 21 0
19 18 -2 22 -15 3 -14 5 5 10 20 6 22 3 22 -33 0 -40 9 -46 44 -33 21 8 20 21
-1 27 -17 4 -17 5 0 6 9 0 17 5 17 10 0 5 -8 12 -17 14 -17 4 -17 5 0 6 26 2
20 21 -7 21 -13 0 -36 2 -52 5 -16 2 -35 2 -41 -1z"/>
<path d="M906 923 c-3 -3 -6 -23 -6 -43 0 -37 0 -37 50 -43 52 -6 80 -1 80 13
0 5 -8 11 -17 13 -17 4 -17 5 0 6 9 0 17 5 17 10 0 5 -8 12 -17 14 -17 4 -17
5 0 6 29 2 19 21 -12 21 -25 0 -30 -4 -33 -27 -5 -41 -38 -44 -38 -4 0 30 -11
46 -24 34z"/>
<path d="M1047 923 c-11 -10 -8 -83 2 -83 6 0 13 5 16 10 5 8 11 8 20 0 17
-14 31 6 16 24 -7 9 -7 16 0 23 17 17 1 37 -18 22 -11 -10 -16 -10 -22 -1 -4
7 -10 9 -14 5z"/>
<path d="M1120 875 c0 -46 8 -53 44 -39 21 8 20 21 -1 27 -17 4 -17 5 0 6 9 0
17 5 17 10 0 5 -8 12 -17 14 -17 4 -17 5 0 6 30 2 18 21 -13 21 -29 0 -30 -2
-30 -45z"/>
<path d="M1250 910 c0 -5 7 -10 16 -10 15 0 15 -2 0 -25 -21 -33 -21 -35 12
-35 21 0 24 2 12 10 -13 8 -13 13 3 40 l18 30 -30 0 c-17 0 -31 -4 -31 -10z"/>
<path d="M1337 913 c-4 -3 -7 -21 -7 -40 0 -28 3 -33 23 -32 16 1 18 2 5 6
-21 5 -23 19 -5 26 10 4 10 6 0 6 -21 2 -15 21 10 31 21 8 21 9 1 9 -11 1 -24
-2 -27 -6z"/>
<path d="M1398 909 c-7 -22 4 -72 13 -58 5 10 11 10 21 1 11 -9 14 -4 13 26 0
30 -4 38 -21 40 -12 2 -24 -2 -26 -9z m42 -25 c0 -8 -7 -14 -15 -14 -15 0 -21
21 -9 33 10 9 24 -2 24 -19z"/>
<path d="M1483 880 c0 -25 2 -35 4 -22 2 12 2 32 0 45 -2 12 -4 2 -4 -23z"/>
<path d="M1550 901 c0 -25 -27 -28 -33 -3 -3 9 -5 -1 -5 -23 0 -22 2 -34 5
-27 6 14 33 16 33 2 0 -5 5 -10 10 -10 6 0 10 15 10 34 0 19 -4 38 -10 41 -5
3 -10 -3 -10 -14z"/>
<path d="M1593 886 c1 -22 7 -41 13 -43 19 -6 44 26 43 55 -1 26 -1 26 -12 -6
-12 -39 -29 -37 -39 4 -5 25 -6 24 -5 -10z"/>
<path d="M1671 878 c1 -24 4 -33 6 -20 2 12 8 22 12 22 5 0 16 -10 24 -22 16
-22 16 -22 15 22 0 25 -2 37 -5 28 -5 -22 -22 -23 -29 -3 -12 29 -24 14 -23
-27z"/>
</g>
</svg>
